<svg id="fondo_rojo" data-name="fondo rojo" xmlns="http://www.w3.org/2000/svg" width="1920" height="1080" viewBox="0 0 1920 1080">
  <defs>
    <style>
      .cls-1, .cls-2 {
        fill-rule: evenodd;
      }

      .cls-2 {
        fill: #fff;
      }
    </style>
  </defs>
  <path id="Elipse_1" data-name="Elipse 1" class="cls-1" d="M1573.77,454.075c12.61,0,22.83,9.821,22.83,21.935s-10.22,21.935-22.83,21.935-22.83-9.821-22.83-21.935S1561.16,454.075,1573.77,454.075Z"/>
  <path id="urrea" class="cls-2" d="M988.4,453.067v72.67q0,21.029,11.316,33.881t30.214,12.851q26.835,0,42.23-18.927V569.9h35V453.067h-35v64.725a40.827,40.827,0,0,1-13.06,15.655q-8.64,6.309-15.87,6.309-9.8,0-14.81-6.542t-5.02-17.525V453.067h-35ZM1160.83,474.8V453.067h-35V569.9h35V508.913q3.72-12.847,14-19.394a42.479,42.479,0,0,1,23.33-6.543V450.263q-21.93,0-37.33,24.535h0Zm82.83,0V453.067h-35V569.9h35V508.913q3.735-12.847,14-19.394a42.479,42.479,0,0,1,23.33-6.543V450.263q-21.93,0-37.33,24.535h0Zm148.16-9q-16.335-16.238-43.63-16.24-25.44,0-43.28,18.46t-17.85,44.4q0,25.705,18.2,43.344t44.1,17.642q31.02,0,49.7-16.357l-11.67-21.029q-14.235,9.348-32.9,9.346-24.735,0-31.97-24.3h84.7a55.46,55.46,0,0,0,.93-10.748Q1408.15,482.045,1391.82,465.8Zm-70.46,33.764q2.325-10.279,9.68-16.006a27.123,27.123,0,0,1,17.15-5.724q10.965,0,18.08,5.841a26.928,26.928,0,0,1,9.22,15.889h-54.13Zm157.61,68.7a60.093,60.093,0,0,0,19.72-15.422V569.9h34.99V489.752q0-19.857-14.7-30.025-14.685-10.165-41.06-10.165-33.375,0-55.77,18.927l17.04,20.1a64.4,64.4,0,0,1,18.08-9,62.428,62.428,0,0,1,19.25-3.388q22.17,0,22.17,18.693v5.842a288.308,288.308,0,0,0-31.85,1.518,114.928,114.928,0,0,0-25.09,5.608q-11.67,4.092-17.73,12.268t-6.07,20.1q0,16.122,10.74,24.651,10.725,8.527,29.4,8.529A48.749,48.749,0,0,0,1478.97,568.263Zm-18.32-22.548a11.22,11.22,0,0,1-4.2-9.23,14.66,14.66,0,0,1,3.5-10.047q3.51-3.97,10.85-5.608a100.455,100.455,0,0,1,12.72-2.1q5.37-.466,15.17-0.7v14.019q-12.135,17.06-26.84,17.058Q1464.86,549.1,1460.65,545.715Z"/>
  <path id="mercado" class="cls-1" d="M199.463,503.539a31.656,31.656,0,0,1,9.1-15.189q6.3-5.607,13.533-5.608a11.269,11.269,0,0,1,9.216,4.557A24.169,24.169,0,0,1,236.1,497a47.477,47.477,0,0,1,1.166,10.515V569.9h35V497.23q0-21.261-9.566-34.115t-27.766-12.852q-26.835,0-39.666,22.2-8.634-21.731-34.765-21.73-21,0-33.833,17.992V453.067h-35V569.9h35v-66.36a31.656,31.656,0,0,1,9.1-15.189q6.3-5.607,13.533-5.608,8.165,0,11.666,7.828a41.024,41.024,0,0,1,3.5,16.941V569.9h35v-66.36ZM386.591,465.8q-16.335-16.238-43.632-16.24-25.434,0-43.282,18.46t-17.849,44.4q0,25.705,18.2,43.344t44.1,17.642q31.029,0,49.7-16.357l-11.666-21.029q-14.235,9.348-32.9,9.346-24.735,0-31.966-24.3h84.7a55.443,55.443,0,0,0,.933-10.748Q402.924,482.045,386.591,465.8Zm-70.464,33.764q2.329-10.279,9.683-16.006a27.114,27.114,0,0,1,17.149-5.724q10.965,0,18.083,5.841a26.958,26.958,0,0,1,9.216,15.889H316.127ZM447.49,474.8V453.067h-35V569.9h35V508.913q3.729-12.847,14-19.394a42.486,42.486,0,0,1,23.333-6.543V450.263q-21.934,0-37.332,24.535h0Zm80.964,16.24a29.71,29.71,0,0,1,21-8.3q15.63,0,30.1,9.347l15.4-25.469q-18.2-17.054-47.365-17.058-25.436,0-43.4,18.343t-17.966,43.578a60.234,60.234,0,0,0,17.849,43.695q17.85,18.226,43.516,18.226,29.4,0,47.365-16.824l-15.4-25.469a53.19,53.19,0,0,1-30.1,9.346,29.461,29.461,0,0,1-21.232-8.295,27.489,27.489,0,0,1-8.634-20.679A26.886,26.886,0,0,1,528.454,491.038Zm128.679,77.225a59.981,59.981,0,0,0,19.717-15.422V569.9h35V489.752q0-19.857-14.7-30.025t-41.065-10.165q-33.37,0-55.766,18.927l17.033,20.1a64.414,64.414,0,0,1,18.083-9,62.408,62.408,0,0,1,19.25-3.388q22.164,0,22.166,18.693v5.842A288.346,288.346,0,0,0,645,502.253a114.855,114.855,0,0,0-25.082,5.608q-11.67,4.092-17.733,12.268t-6.066,20.1q0,16.122,10.733,24.651t29.4,8.529A48.747,48.747,0,0,0,657.133,568.263Zm-18.316-22.548a11.22,11.22,0,0,1-4.2-9.23,14.646,14.646,0,0,1,3.5-10.047q3.5-3.97,10.85-5.608a100.406,100.406,0,0,1,12.716-2.1q5.365-.466,15.167-0.7v14.019Q664.715,549.1,650.017,549.1,643.017,549.1,638.817,545.715ZM845.078,404h-35v64.491A37.455,37.455,0,0,0,795.613,454.7a39.659,39.659,0,0,0-19.366-5.141q-24.97,0-39.9,17.876t-14.933,44.045q0,26.407,14.933,44.162t39.9,17.759a39.659,39.659,0,0,0,19.366-5.141,38,38,0,0,0,14.466-13.552V569.9h35V404ZM766.8,532.162a28.941,28.941,0,0,1,0-41.008,27.65,27.65,0,0,1,20.416-8.645q14,0,22.866,11.449v35.283q-8.869,11.452-22.866,11.45A27.814,27.814,0,0,1,766.8,532.162Zm129.38,0.234a29.078,29.078,0,0,1-8.167-20.913,28.7,28.7,0,0,1,8.283-20.562,27.88,27.88,0,0,1,40.366,0,30.1,30.1,0,0,1,0,41.475A28.282,28.282,0,0,1,896.177,532.4Zm82.131-20.913q0-25.7-17.85-43.812t-43.982-18.109q-26.135,0-43.982,18.109t-17.85,43.812q0,25.707,17.85,43.812T916.476,573.4q26.128,0,43.982-18.109T978.308,511.483Z"/>
  <path id="com" class="cls-1" d="M1626.48,478.743a17.268,17.268,0,0,1,0-23.915,16.78,16.78,0,0,1,12.53-4.907,31.412,31.412,0,0,1,17.57,4.963l6.8-12.973a46.008,46.008,0,0,0-24.37-6.994q-15.87,0-25.16,9.025t-9.3,22.787q0,13.764,9.3,22.843t25.16,9.081a46.363,46.363,0,0,0,24.48-7.107l-7.03-12.86a32.251,32.251,0,0,1-17.45,4.964A16.784,16.784,0,0,1,1626.48,478.743Zm85.24-23.633a16.367,16.367,0,0,1-.06,23.238,17.287,17.287,0,0,1-12.58,4.738q-7.71,0-12.53-4.738a15.665,15.665,0,0,1-4.81-11.619,15.434,15.434,0,0,1,4.81-11.619q4.815-4.625,12.53-4.625Q1706.9,450.485,1711.72,455.11Zm12.58,34.462q9.345-9.079,9.35-22.843,0-13.648-9.35-22.731t-25.22-9.081q-15.765,0-25.05,9.025t-9.29,22.787q0,13.764,9.29,22.843t25.05,9.081Q1714.95,498.653,1724.3,489.572Zm16.6-53.3V497.3h15.87V459.622l14.05,21.546h6.46l14.17-21.659V497.3h15.75V436.271h-16.32L1774,461.653l-16.78-25.382H1740.9Z"/>
  <path id="Elipse_1_copia" data-name="Elipse 1 copia" class="cls-2" d="M1574.6,523.774c12.61,0,22.83,9.821,22.83,21.935s-10.22,21.934-22.83,21.934-22.82-9.82-22.82-21.934S1562,523.774,1574.6,523.774Z"/>
  <path id="mx" class="cls-2" d="M1657.29,539.2a14.719,14.719,0,0,1,4.27-7.088,9.429,9.429,0,0,1,6.35-2.617,5.3,5.3,0,0,1,4.33,2.126,11.33,11.33,0,0,1,2.25,4.526,22.28,22.28,0,0,1,.54,4.907v29.114h16.44V536.255q0-9.921-4.49-15.921t-13.04-6q-12.6,0-18.63,10.359-4.05-10.14-16.32-10.141-9.855,0-15.89,8.4v-7.306h-16.43v54.521h16.43V539.2a14.733,14.733,0,0,1,4.28-7.088,9.429,9.429,0,0,1,6.35-2.617,5.629,5.629,0,0,1,5.48,3.653,19.135,19.135,0,0,1,1.64,7.906v29.114h16.44V539.2Zm99.91,30.968-22.13-27.588,21.37-26.933h-20.82l-10.19,16.683-10.08-16.683h-20.92l19.83,26.933-20.49,27.588h20.82l10.84-16.574,10.85,16.574h20.92Z"/>
</svg>
