<svg id="fondos_negros" data-name="fondos negros" xmlns="http://www.w3.org/2000/svg" width="1920" height="1080" viewBox="0 0 1920 1080">
  <defs>
    <style>
      .cls-1 {
        fill: #818181;
      }

      .cls-1, .cls-2, .cls-3 {
        fill-rule: evenodd;
      }

      .cls-2 {
        fill: #303030;
      }

      .cls-3 {
        fill: #fd0000;
      }
    </style>
  </defs>
  <path id="Elipse_1" data-name="Elipse 1" class="cls-1" d="M1573.92,455.075c12.6,0,22.82,9.821,22.82,21.935s-10.22,21.935-22.82,21.935-22.81-9.821-22.81-21.935S1561.32,455.075,1573.92,455.075Z"/>
  <path id="urrea" class="cls-2" d="M990.873,454.067v72.67q0,21.029,11.307,33.881t30.2,12.851q26.82,0,42.21-18.927V570.9h34.98V454.067h-34.98v64.725a40.915,40.915,0,0,1-13.06,15.655q-8.625,6.309-15.86,6.309-9.8,0-14.8-6.542-5.025-6.54-5.02-17.525V454.067H990.873ZM1163.2,475.8V454.067h-34.98V570.9h34.98V509.913q3.735-12.847,14-19.394a42.411,42.411,0,0,1,23.31-6.543V451.263q-21.915,0-37.31,24.535h0Zm82.79,0V454.067h-34.98V570.9h34.98V509.913q3.72-12.847,13.99-19.394a42.445,42.445,0,0,1,23.32-6.543V451.263q-21.93,0-37.31,24.535h0Zm148.08-9q-16.335-16.238-43.61-16.24-25.425,0-43.26,18.46t-17.84,44.4q0,25.705,18.19,43.344t44.07,17.642q31.02,0,49.68-16.357l-11.66-21.029q-14.235,9.348-32.89,9.346-24.72,0-31.94-24.3h84.65a55.46,55.46,0,0,0,.93-10.748Q1410.39,483.045,1394.07,466.8Zm-70.43,33.764q2.325-10.279,9.68-16.006a27.1,27.1,0,0,1,17.14-5.724q10.95,0,18.07,5.841a26.966,26.966,0,0,1,9.21,15.889h-54.1Zm157.52,68.7a59.958,59.958,0,0,0,19.71-15.422V570.9h34.98V490.752q0-19.857-14.69-30.025t-41.05-10.165q-33.345,0-55.73,18.927l17.02,20.1a64.4,64.4,0,0,1,18.08-9,62.319,62.319,0,0,1,19.24-3.388q22.14,0,22.15,18.693v5.842a288.048,288.048,0,0,0-31.83,1.518,114.746,114.746,0,0,0-25.07,5.608q-11.67,4.092-17.72,12.268-6.075,8.181-6.07,20.1,0,16.122,10.73,24.651t29.38,8.529A48.639,48.639,0,0,0,1481.16,569.263Zm-18.3-22.548a11.22,11.22,0,0,1-4.2-9.23,14.66,14.66,0,0,1,3.5-10.047q3.495-3.97,10.84-5.608a100.333,100.333,0,0,1,12.71-2.1q5.37-.466,15.16-0.7v14.019q-12.135,17.06-26.82,17.058Q1467.06,550.1,1462.86,546.715Z"/>
  <path id="mercado" class="cls-1" d="M200.4,504.539a31.664,31.664,0,0,1,9.095-15.189q6.3-5.607,13.525-5.608a11.264,11.264,0,0,1,9.212,4.557,24.173,24.173,0,0,1,4.78,9.7,47.477,47.477,0,0,1,1.166,10.515V570.9h34.979V498.23q0-21.261-9.561-34.115t-27.75-12.852q-26.819,0-39.643,22.2-8.63-21.731-34.746-21.73-20.988,0-33.813,17.992V454.067H92.66V570.9h34.979v-66.36a31.655,31.655,0,0,1,9.094-15.189q6.3-5.607,13.526-5.608,8.16,0,11.659,7.828a41.055,41.055,0,0,1,3.5,16.941V570.9H200.4v-66.36ZM387.417,466.8q-16.324-16.238-43.607-16.24-25.421,0-43.258,18.46t-17.839,44.4q0,25.705,18.189,43.344T344.976,574.4q31.011,0,49.67-16.357l-11.659-21.029q-14.228,9.348-32.881,9.346-24.72,0-31.947-24.3h84.649a55.443,55.443,0,0,0,.933-10.748Q403.741,483.045,387.417,466.8Zm-70.424,33.764q2.328-10.279,9.677-16.006a27.091,27.091,0,0,1,17.14-5.724q10.959,0,18.073,5.841a26.962,26.962,0,0,1,9.211,15.889h-54.1ZM448.281,475.8V454.067H413.3V570.9h34.979V509.913q3.728-12.847,13.992-19.394a42.444,42.444,0,0,1,23.319-6.543V451.263q-21.923,0-37.311,24.535h0Zm80.919,16.24a29.684,29.684,0,0,1,20.987-8.3q15.621,0,30.082,9.347L595.66,467.62q-18.189-17.054-47.339-17.058-25.419,0-43.374,18.343t-17.956,43.578a60.249,60.249,0,0,0,17.84,43.7q17.84,18.226,43.49,18.226,29.383,0,47.339-16.824l-15.391-25.469a53.14,53.14,0,0,1-30.082,9.346,29.438,29.438,0,0,1-21.221-8.295,27.5,27.5,0,0,1-8.628-20.679A26.892,26.892,0,0,1,529.2,492.038Zm128.606,77.225a59.952,59.952,0,0,0,19.7-15.422V570.9H712.49V490.752q0-19.857-14.691-30.025t-41.042-10.165q-33.351,0-55.734,18.927l17.024,20.1a64.359,64.359,0,0,1,18.072-9,62.343,62.343,0,0,1,19.239-3.388q22.151,0,22.153,18.693v5.842a288,288,0,0,0-31.831,1.518,114.728,114.728,0,0,0-25.068,5.608q-11.664,4.092-17.723,12.268t-6.063,20.1q0,16.122,10.727,24.651t29.382,8.529A48.7,48.7,0,0,0,657.806,569.263ZM639.5,546.715a11.224,11.224,0,0,1-4.2-9.23,14.649,14.649,0,0,1,3.5-10.047q3.5-3.97,10.843-5.608a100.292,100.292,0,0,1,12.709-2.1q5.363-.466,15.158-0.7v14.019Q665.384,550.1,650.694,550.1,643.7,550.1,639.5,546.715ZM845.644,405H810.665v64.491A37.446,37.446,0,0,0,796.207,455.7a39.621,39.621,0,0,0-19.355-5.141q-24.955,0-39.876,17.876t-14.925,44.045q0,26.408,14.925,44.162T776.852,574.4a39.621,39.621,0,0,0,19.355-5.141,37.989,37.989,0,0,0,14.458-13.552V570.9h34.979V405ZM767.408,533.162a28.95,28.95,0,0,1,0-41.008,27.625,27.625,0,0,1,20.4-8.645q13.992,0,22.853,11.449v35.283q-8.865,11.452-22.853,11.45A27.789,27.789,0,0,1,767.408,533.162ZM896.714,533.4a29.086,29.086,0,0,1-8.162-20.913,28.71,28.71,0,0,1,8.278-20.562,27.854,27.854,0,0,1,40.343,0,30.113,30.113,0,0,1,0,41.475A28.255,28.255,0,0,1,896.714,533.4ZM978.8,512.483q0-25.7-17.839-43.812T917,450.562q-26.119,0-43.958,18.109t-17.839,43.812q0,25.707,17.839,43.812T917,574.4q26.113,0,43.957-18.109T978.8,512.483Z"/>
  <path id="com" class="cls-1" d="M1626.61,479.743a17.242,17.242,0,0,1,0-23.915,16.75,16.75,0,0,1,12.51-4.907,31.356,31.356,0,0,1,17.56,4.963l6.8-12.973a45.948,45.948,0,0,0-24.36-6.994q-15.855,0-25.14,9.025-9.3,9.025-9.29,22.787t9.29,22.843q9.285,9.082,25.14,9.081a46.329,46.329,0,0,0,24.47-7.107l-7.02-12.86a32.226,32.226,0,0,1-17.45,4.964A16.754,16.754,0,0,1,1626.61,479.743Zm85.18-23.633a16.367,16.367,0,0,1-.06,23.238,17.263,17.263,0,0,1-12.57,4.738q-7.71,0-12.52-4.738a15.665,15.665,0,0,1-4.81-11.619,15.434,15.434,0,0,1,4.81-11.619q4.815-4.625,12.52-4.625Q1706.975,451.485,1711.79,456.11Zm12.57,34.462q9.345-9.079,9.35-22.843,0-13.648-9.35-22.731t-25.2-9.081q-15.75,0-25.03,9.025-9.3,9.025-9.29,22.787t9.29,22.843q9.285,9.082,25.03,9.081Q1715.015,499.653,1724.36,490.572Zm16.6-53.3V498.3h15.86V460.622l14.04,21.546h6.46l14.16-21.659V498.3h15.75V437.271h-16.32l-16.87,25.382-16.77-25.382h-16.31Z"/>
  <path id="Elipse_1_copia" data-name="Elipse 1 copia" class="cls-3" d="M1574.76,524.774c12.59,0,22.81,9.821,22.81,21.935s-10.22,21.934-22.81,21.934-22.82-9.82-22.82-21.934S1562.16,524.774,1574.76,524.774Z"/>
  <path id="mx" class="cls-3" d="M1657.39,540.2a14.8,14.8,0,0,1,4.27-7.088,9.429,9.429,0,0,1,6.35-2.617,5.309,5.309,0,0,1,4.33,2.126,11.177,11.177,0,0,1,2.24,4.526,21.7,21.7,0,0,1,.55,4.907v29.114h16.42V537.255q0-9.921-4.49-15.921t-13.03-6q-12.585,0-18.61,10.359-4.05-10.14-16.31-10.141-9.855,0-15.88,8.4v-7.306H1606.8v54.521h16.43V540.2a14.719,14.719,0,0,1,4.27-7.088,9.429,9.429,0,0,1,6.35-2.617,5.616,5.616,0,0,1,5.47,3.653,18.984,18.984,0,0,1,1.65,7.906v29.114h16.42V540.2Zm99.86,30.968-22.12-27.588,21.36-26.933h-20.81l-10.18,16.683-10.08-16.683h-20.91l19.82,26.933-20.48,27.588h20.81l10.84-16.574,10.84,16.574h20.91Z"/>
</svg>
